<?xml version="1.0" standalone="no"?>
<!DOCTYPE svg PUBLIC "-//W3C//DTD SVG 1.0//EN" "http://www.w3.org/TR/2001/REC-SVG-20010904/DTD/svg10.dtd">
<svg xmlns="http://www.w3.org/2000/svg" xmlns:xlink="http://www.w3.org/1999/xlink" id="body_1" width="31" height="23">

<g transform="matrix(0.044921875 0 0 0.044921875 4.000001 -0)">
    <path d="M124.51 168C 126.19226 163.76743 128.22604 159.6831 130.59 155.79C 131.15 138.09 144.42 123.909996 160.7 123.909996L160.7 123.909996L351.56 123.909996C 368.2 123.909996 381.69 138.7 381.69 156.91L381.69 156.91L381.69 157.91C 382.25 158.95001 382.77335 160.02335 383.26 161.13C 385.86002 167.13 388.97 168.58 394.95 168.54001C 431.1 168.31001 467.26 168.44 503.41 168.39001C 506.1 168.39001 508.80002 167.93001 511.65 167.67001C 512.16 134.52002 500.91998 108.59001 472.37 90.67001C 441.51 71.34001 407.25 64.20001 372.06 63.670013C 292.06 62.443348 212.06001 62.443348 132.06 63.670013C 97.45528 64.074844 63.64778 74.113556 34.43 92.66C 6.41 110.29 -1.25 136.62 0.35 168L0.35 168L124.51 168z" stroke="none" fill="#434040" fill-rule="nonzero" />
    <path d="M510.53 175.24L387.26 175.24C 384.19 203.59001 386.18002 205.83 413.43002 205.83C 437.95 205.83 462.46338 205.83 486.97003 205.83C 508.73 205.8 515.3 197.37 510.53 175.24z" stroke="none" fill="#434040" fill-rule="nonzero" />
    <path d="M124.22 175.42L0.79 175.42C -2.13 200.58 2.31 205.81 26.140001 205.81999C 49.97 205.82999 73.78 205.81999 97.6 205.81999C 118.63 205.78 125.69 197.78 124.22 175.42z" stroke="none" fill="#434040" fill-rule="nonzero" />
    <path d="M359.39 177.17L363.72 128.84L334.19 128.84L324.1 177.16L187.91 177.16L177.82 128.84L148.28 128.84L152.61 177.17L123.48 213.23999L72.13 358.95L72.13 439.43002L84.61 439.43002L84.61 443.60004C 84.61551 446.66293 87.09711 449.1445 90.16 449.15002L90.16 449.15002L120.7 449.15002C 123.76289 449.1445 126.24449 446.66293 126.25 443.60004L126.25 443.60004L126.25 439.43002L385.75 439.43002L385.75 443.60004C 385.75552 446.66684 388.2432 449.15002 391.31 449.15002L391.31 449.15002L421.84 449.15002C 424.90518 449.15002 427.38998 446.66522 427.38998 443.60004L427.38998 443.60004L427.38998 439.43002L439.87997 439.43002L439.87997 358.95L388.53 213.24L359.39 177.17zM256 388.08C 222.02518 388.08 191.39572 367.61404 178.39412 336.2254C 165.39252 304.83673 172.5792 268.70685 196.60303 244.68301C 220.62686 220.65918 256.75674 213.4725 288.14542 226.4741C 319.53406 239.47571 340 270.10516 340 304.08C 340 350.47192 302.3919 388.08 256 388.08z" stroke="none" fill="#434040" fill-rule="nonzero" />
    <path d="M267.64 234.83C 267.64 231.61572 266.5036 228.87215 264.2307 226.59927C 261.9579 224.32643 259.2143 223.19 256 223.19C 252.7857 223.19 250.04214 224.32643 247.76927 226.59927C 245.49643 228.87215 244.36002 231.61572 244.36 234.83C 244.36002 238.04431 245.49643 240.78789 247.76927 243.06073C 250.04214 245.33359 252.7857 246.47 256 246.47C 259.2143 246.47 261.9579 245.33359 264.2307 243.06073C 266.5036 240.78789 267.64 238.04431 267.64 234.83" stroke="none" fill="#434040" fill-rule="nonzero" />
    <path d="M267.64 373.5C 267.64 370.2857 266.5036 367.54214 264.2307 365.2693C 261.9579 362.99643 259.2143 361.86 256 361.86C 252.7857 361.86 250.04214 362.99643 247.76927 365.2693C 245.49643 367.54214 244.36002 370.2857 244.36 373.5C 244.36002 376.7143 245.49643 379.4579 247.76927 381.7307C 250.04214 384.0036 252.7857 385.14 256 385.14C 259.2143 385.14 261.9579 384.0036 264.2307 381.7307C 266.5036 379.4579 267.64 376.7143 267.64 373.5" stroke="none" fill="#434040" fill-rule="nonzero" />
    <path d="M336.98 304.17C 336.98004 300.95572 335.8436 298.21216 333.5707 295.9393C 331.29788 293.66644 328.55432 292.53 325.34 292.53C 322.12573 292.53 319.38214 293.66644 317.10928 295.9393C 314.83643 298.21216 313.7 300.95572 313.69998 304.17C 313.7 307.3843 314.83643 310.12787 317.10928 312.40073C 319.38214 314.67358 322.12573 315.81003 325.34 315.81003C 328.55432 315.81003 331.29788 314.67358 333.5707 312.40073C 335.8436 310.12787 336.98004 307.3843 336.98 304.17" stroke="none" fill="#434040" fill-rule="nonzero" />
    <path d="M198.3 304.17C 198.3 297.7414 193.0886 292.53 186.65999 292.53C 180.2314 292.53003 175.02 297.74142 175.02 304.17C 175.02 310.5986 180.23141 315.81003 186.66 315.81003C 189.74713 315.81003 192.70781 314.58365 194.89073 312.40073C 197.07365 310.2178 198.3 307.2571 198.3 304.17z" stroke="none" fill="#434040" fill-rule="nonzero" />
    <path transform="matrix(0.7069833 -0.7072302 0.7072302 0.7069833 -91.06 290.46)"  d="M316.67 255.14C 316.67 251.92572 315.53357 249.18213 313.2607 246.90927C 310.98785 244.63644 308.2443 243.50002 305.03 243.5C 301.8157 243.50002 299.07214 244.63644 296.7993 246.90927C 294.52643 249.18213 293.38998 251.92572 293.38998 255.14C 293.38998 258.3543 294.52643 261.0979 296.7993 263.37073C 299.07214 265.6436 301.8157 266.78 305.03 266.78C 308.2443 266.78 310.98785 265.6436 313.2607 263.37073C 315.53357 261.0979 316.67 258.3543 316.67 255.14" stroke="none" fill="#434040" fill-rule="nonzero" />
    <path transform="matrix(0.7071067 -0.7071068 0.7071068 0.7071067 -189.13 249.8)"  d="M218.61 353.2C 218.61002 349.98572 217.47359 347.24216 215.20073 344.9693C 212.92789 342.69644 210.18431 341.56 206.97 341.56C 203.75572 341.56 201.01215 342.69644 198.73927 344.9693C 196.46643 347.24216 195.33 349.98572 195.33 353.2C 195.33 356.4143 196.46643 359.1579 198.73927 361.43073C 201.01215 363.7036 203.75572 364.84003 206.97 364.84003C 210.18431 364.84003 212.92789 363.7036 215.20073 361.43073C 217.47359 359.1579 218.61002 356.4143 218.61 353.2" stroke="none" fill="#434040" fill-rule="nonzero" />
    <path transform="matrix(0.7069833 -0.7072302 0.7072302 0.7069833 -160.41 319.18)"  d="M316.67 353.2C 316.67 349.98572 315.53357 347.24216 313.2607 344.9693C 310.98785 342.69644 308.2443 341.56 305.03 341.56C 301.8157 341.56 299.07214 342.69644 296.7993 344.9693C 294.52643 347.24216 293.38998 349.98572 293.38998 353.2C 293.38998 356.4143 294.52643 359.1579 296.7993 361.43073C 299.07214 363.7036 301.8157 364.84003 305.03 364.84003C 308.2443 364.84003 310.98785 363.7036 313.2607 361.43073C 315.53357 359.1579 316.67 356.4143 316.67 353.2" stroke="none" fill="#434040" fill-rule="nonzero" />
    <path transform="matrix(0.7069833 -0.7072302 0.7072302 0.7069833 -119.79 221.12)"  d="M218.61 255.14C 218.61002 251.92572 217.47359 249.18213 215.20073 246.90927C 212.92789 244.63644 210.18431 243.50002 206.97 243.5C 203.75572 243.50002 201.01215 244.63644 198.73927 246.90927C 196.46643 249.18213 195.33 251.92572 195.33 255.14C 195.33 258.3543 196.46643 261.0979 198.73927 263.37073C 201.01215 265.6436 203.75572 266.78 206.97 266.78C 210.18431 266.78 212.92789 265.6436 215.20073 263.37073C 217.47359 261.0979 218.61002 258.3543 218.61 255.14" stroke="none" fill="#434040" fill-rule="nonzero" />
    <path d="M309 281.4C 310.8556 285.7281 315.13614 288.51172 319.84485 288.45236C 324.55356 288.39304 328.76263 285.5024 330.50858 281.12897C 332.25452 276.75552 331.19333 271.76093 327.82007 268.47516C 324.44678 265.18936 319.42606 264.25977 315.1 266.12C 309.19873 268.6576 306.46872 275.49603 309 281.4z" stroke="none" fill="#434040" fill-rule="nonzero" />
    <path transform="matrix(0.9189289 -0.39442316 0.39442316 0.9189289 -115.19 102.74)"  d="M203.93 331.52C 203.93001 328.30573 202.79358 325.56213 200.52072 323.28928C 198.24786 321.01642 195.50429 319.88 192.29 319.87997C 189.0757 319.88 186.33212 321.01642 184.05927 323.28928C 181.78642 325.56213 180.65 328.30573 180.65 331.52C 180.65 334.7343 181.78642 337.47787 184.05927 339.7507C 186.33212 342.0236 189.0757 343.16003 192.29 343.16C 195.50429 343.16003 198.24786 342.0236 200.52072 339.7507C 202.79358 337.47787 203.93001 334.7343 203.93 331.52" stroke="none" fill="#434040" fill-rule="nonzero" />
    <path d="M278.76 357.19C 272.85364 359.72778 270.12283 366.5731 272.66052 372.47952C 275.19824 378.38596 282.0435 381.11688 287.94995 378.5793C 293.85645 376.04172 296.5875 369.1965 294.05002 363.29C 292.83142 360.45343 290.5359 358.21716 287.66843 357.07318C 284.80096 355.9292 281.5965 355.97122 278.76 357.19z" stroke="none" fill="#434040" fill-rule="nonzero" />
    <path transform="matrix(0.9188601 -0.39458352 0.39458352 0.9188601 -76.32 109.71)"  d="M240.29 240.45C 240.29 237.23572 239.15356 234.49213 236.88072 232.21927C 234.60788 229.94644 231.86429 228.81001 228.65 228.81C 225.4357 228.81001 222.69214 229.94644 220.41927 232.21927C 218.14642 234.49213 217.01001 237.23572 217.01 240.45C 217.01001 243.6643 218.14642 246.40787 220.41927 248.68073C 222.69214 250.95358 225.4357 252.09 228.65 252.09C 231.86429 252.09 234.60788 250.95358 236.88072 248.68073C 239.15356 246.40787 240.29 243.6643 240.29 240.45" stroke="none" fill="#434040" fill-rule="nonzero" />
    <path transform="matrix(0.38155437 -0.92434645 0.92434645 0.38155437 -138.03 349.11)"  d="M203.55 277.72C 203.55002 274.5057 202.41359 271.76215 200.14073 269.4893C 197.86787 267.21643 195.1243 266.08 191.91 266.08C 188.69571 266.08 185.95213 267.21643 183.67928 269.4893C 181.40643 271.76215 180.27002 274.5057 180.27 277.72C 180.27002 280.9343 181.40643 283.67786 183.67928 285.9507C 185.95213 288.22357 188.69571 289.36002 191.91 289.36002C 195.1243 289.36002 197.86787 288.22357 200.14073 285.9507C 202.41359 283.67786 203.55002 280.9343 203.55 277.72" stroke="none" fill="#434040" fill-rule="nonzero" />
    <path transform="matrix(0.38139305 -0.924413 0.924413 0.38139305 -107.61 500.43)"  d="M331.73 330.62C 331.73004 327.4057 330.5936 324.66214 328.3207 322.38928C 326.04788 320.11642 323.30432 318.97998 320.09 318.97998C 316.87573 318.97998 314.13214 320.11642 311.85928 322.38928C 309.58643 324.66214 308.45 327.4057 308.44998 330.62C 308.45 333.8343 309.58643 336.57788 311.85928 338.8507C 314.13214 341.1236 316.87573 342.26 320.09 342.26C 323.30432 342.26 326.04788 341.1236 328.3207 338.8507C 330.5936 336.57788 331.73004 333.8343 331.73 330.62" stroke="none" fill="#434040" fill-rule="nonzero" />
    <path d="M278 250.83C 282.351 252.62943 287.35757 251.63037 290.6847 248.29878C 294.0118 244.96721 295.00415 239.95932 293.1989 235.61072C 291.39368 231.26212 287.14642 228.42935 282.43802 228.43358C 277.72958 228.4378 273.48743 231.27818 271.69 235.63C 269.23666 241.56984 272.0613 248.374 278 250.83z" stroke="none" fill="#434040" fill-rule="nonzero" />
    <path d="M234 357.51C 229.64899 355.7106 224.64244 356.70966 221.3153 360.04123C 217.98819 363.37283 216.99583 368.3807 218.80107 372.7293C 220.60632 377.0779 224.85356 379.91068 229.56198 379.90643C 234.2704 379.90222 238.51256 377.06186 240.31 372.71002C 241.49092 369.85782 241.48943 366.6531 240.30583 363.802C 239.12225 360.9509 236.8537 358.68732 234 357.51z" stroke="none" fill="#434040" fill-rule="nonzero" />
    <path d="M256.48 261.6C 233.01048 261.61105 213.99261 280.64383 213.99997 304.11334C 214.00732 327.58282 233.03714 346.6037 256.50662 346.6C 279.97614 346.5963 298.99997 327.56952 299 304.1C 298.99997 292.82483 294.51956 282.01178 286.54495 274.0409C 278.5703 266.07004 267.75516 261.5947 256.48 261.6z" stroke="none" fill="#434040" fill-rule="nonzero" />
</g>
</svg>