<?xml version="1.0" standalone="no"?>
<!DOCTYPE svg PUBLIC "-//W3C//DTD SVG 1.0//EN" "http://www.w3.org/TR/2001/REC-SVG-20010904/DTD/svg10.dtd">
<svg xmlns="http://www.w3.org/2000/svg" xmlns:xlink="http://www.w3.org/1999/xlink" id="body_1" width="31" height="23">

<g transform="matrix(0.044921875 0 0 0.044921875 4.000001 -0)">
    <path d="M12.8 166.4C 12.8 138.12302 35.723022 115.2 64 115.2L64 115.2L448 115.2C 476.27698 115.2 499.19998 138.12302 499.19998 166.4L499.19998 166.4L499.19998 422.4C 499.19998 450.67697 476.27698 473.59998 448 473.59998L448 473.59998L64 473.59998C 35.723022 473.59998 12.8 450.67697 12.8 422.4L12.8 422.4L12.8 166.4z" stroke="none" fill="#F5CEB7" fill-rule="nonzero" />
    <path d="M236.8 409.6C 233.26767 409.5945 230.40552 406.73236 230.40001 403.2L230.40001 403.2L230.40001 371.2L198.40001 371.2C 194.86768 371.1945 192.00552 368.33234 192.00002 364.80002L192.00002 364.80002L192.00002 326.4C 192.00552 322.86768 194.86768 320.00552 198.40001 320L198.40001 320L230.40001 320L230.40001 288C 230.40552 284.46765 233.26767 281.6055 236.8 281.6L236.8 281.6L275.2 281.6C 278.73236 281.6055 281.5945 284.46765 281.6 288L281.6 288L281.6 320L313.6 320C 317.13232 320.00552 319.99448 322.86768 320 326.4L320 326.4L320 364.8C 319.99448 368.33234 317.13232 371.1945 313.6 371.19998L313.6 371.19998L281.6 371.19998L281.6 403.19998C 281.5945 406.7323 278.73236 409.59445 275.2 409.59998L275.2 409.59998L236.8 409.6z" stroke="none" fill="#F44747" fill-rule="nonzero" />
    <path d="M89.6 198.4C 89.6 194.86537 92.46538 192 96 192L96 192L121.6 192C 125.13462 192 128 194.86537 128 198.4L128 198.4L128 236.8C 128 240.33463 125.13462 243.2 121.6 243.2L121.6 243.2L96 243.2C 92.46538 243.2 89.6 240.33463 89.6 236.8L89.6 236.8L89.6 198.4z" stroke="none" fill="#908FE2" fill-rule="nonzero" />
    <path d="M384 198.4C 384 194.86537 386.8654 192 390.4 192L390.4 192L416 192C 419.53464 192 422.4 194.86537 422.4 198.4L422.4 198.4L422.4 236.8C 422.4 240.33463 419.53464 243.2 416 243.2L416 243.2L390.4 243.2C 386.8654 243.2 384 240.33463 384 236.8L384 236.8L384 198.4z" stroke="none" fill="#908FE2" fill-rule="nonzero" />
    <path d="M448 102.4L358.4 102.4L358.4 89.6C 358.4 54.253773 329.74622 25.599998 294.4 25.599998L294.4 25.599998L217.6 25.599998C 182.25378 25.599998 153.6 54.253773 153.6 89.6L153.6 89.6L153.6 102.4L64 102.4C 28.653778 102.399994 3.8146973E-06 131.05377 0 166.4L0 166.4L0 422.4C 0 457.74622 28.653774 486.4 64 486.4L64 486.4L448 486.4C 483.34622 486.4 512 457.74622 512 422.4L512 422.4L512 166.4C 512 131.05377 483.34622 102.399994 448 102.4zM179.2 89.6C 179.22205 68.40139 196.4014 51.222034 217.6 51.199997L217.6 51.199997L294.40002 51.199997C 315.59863 51.22204 332.77798 68.4014 332.80002 89.6L332.80002 89.6L332.80002 102.4L179.2 102.4zM64 128L448 128C 469.1986 128.02205 486.37796 145.2014 486.4 166.4L486.4 166.4L486.4 204.79999L435.2 204.79999L435.2 198.4C 435.2 193.30783 433.17715 188.42424 429.57645 184.82353C 425.97574 181.22284 421.09213 179.2 416 179.2L416 179.2L390.4 179.2C 385.30786 179.2 380.42426 181.22284 376.82355 184.82353C 373.22284 188.42424 371.19998 193.30783 371.19998 198.4L371.19998 198.4L371.19998 204.79999L140.8 204.79999L140.8 198.4C 140.80002 187.79613 132.20389 179.2 121.600006 179.2L121.600006 179.2L96 179.2C 85.39613 179.2 76.8 187.79613 76.8 198.4L76.8 198.4L76.8 204.79999L25.6 204.79999L25.6 166.4C 25.622047 145.2014 42.80141 128.02203 64 128zM409.6 204.8L409.6 230.40001L396.8 230.40001L396.8 204.8zM115.20001 204.8L115.20001 230.40001L102.4 230.40001L102.4 204.8zM448 460.8L64 460.8C 42.80141 460.77792 25.622047 443.59857 25.599998 422.4L25.599998 422.4L25.599998 230.4L76.8 230.4L76.8 236.79999C 76.799995 241.89215 78.822845 246.77576 82.423546 250.37645C 86.02425 253.97714 90.90784 256 96 256L96 256L121.6 256C 132.20386 255.99998 140.8 247.40385 140.8 236.8L140.8 236.8L140.8 230.40001L371.2 230.40001L371.2 236.8C 371.19998 247.40385 379.7961 255.99998 390.4 256L390.4 256L416 256C 421.09213 255.99998 425.97574 253.97714 429.57645 250.37645C 433.17715 246.77574 435.2 241.89215 435.2 236.8L435.2 236.8L435.2 230.40001L486.40002 230.40001L486.40002 422.40002C 486.37796 443.5986 469.19858 460.77795 448 460.8zM313.6 307.2L294.4 307.2L294.4 288C 294.4 282.90787 292.37714 278.02426 288.77643 274.42355C 285.17572 270.82285 280.2921 268.8 275.19998 268.8L275.19998 268.8L236.8 268.8C 231.70786 268.8 226.82426 270.82285 223.22356 274.42355C 219.62286 278.02426 217.60002 282.90787 217.6 288L217.6 288L217.6 307.2L198.4 307.2C 193.30783 307.2 188.42424 309.22287 184.82353 312.82358C 181.22284 316.4243 179.2 321.3079 179.2 326.40002L179.2 326.40002L179.2 364.80002C 179.2 375.4039 187.79613 384.00003 198.4 384L198.4 384L217.59999 384L217.59999 403.2C 217.59999 408.29214 219.62283 413.17575 223.22353 416.77646C 226.82423 420.37717 231.70782 422.40002 236.79999 422.40002L236.79999 422.40002L275.19998 422.40002C 280.2921 422.40002 285.17572 420.37717 288.77643 416.77646C 292.37714 413.17575 294.4 408.29214 294.4 403.2L294.4 403.2L294.4 384L313.6 384C 318.69214 384 323.57574 381.97714 327.17645 378.37643C 330.77716 374.77573 332.80002 369.89212 332.80002 364.8L332.80002 364.8L332.80002 326.4C 332.8 315.7961 324.20386 307.19998 313.6 307.2zM307.2 358.40002L268.8 358.40002L268.8 396.80002L243.2 396.80002L243.2 358.4L204.8 358.4L204.8 332.8L243.20001 332.8L243.20001 294.4L268.80002 294.4L268.80002 332.8L307.2 332.8z" stroke="none" fill="#141F38" fill-rule="nonzero" />
</g>
</svg>